<svg xmlns="http://www.w3.org/2000/svg" xmlns:xlink="http://www.w3.org/1999/xlink" version="1.1" x="0px" y="0px" viewBox="0 0 100 100" enable-background="new 0 0 100 100" xml:space="preserve"><path fill="#000000" d="M93.055,14.257c0,0-0.873-0.697-1.256-1.43c-0.081-0.156-0.147-0.318-0.205-0.485  c-0.085-0.251-0.141-0.513-0.203-0.77c-0.065-0.267-0.145-0.543-0.377-0.714c-0.154-0.113-0.354-0.183-0.547-0.16  c-0.155,0.017-0.455,0.122-0.497-0.119c-0.021-0.118,0.013-0.237,0.022-0.354c0.013-0.119-0.005-0.238-0.049-0.35  c-0.057-0.147-0.159-0.289-0.29-0.379c-0.349-0.245-1.062-0.228-1.796-0.611c-0.732-0.384-1.43-1.256-1.43-1.256l-0.349,0.802  c-0.394,0.766-0.874,1.483-1.395,2.157l-0.219-0.22l0.027-0.027c0.063-0.064,0.062-0.169-0.001-0.233  c-0.024-0.024-0.053-0.038-0.083-0.045l0.04-0.434l-0.727-0.894c0,0-0.481,0.536-0.749,0.419L82.92,9.21  c0.117,0.267-0.42,0.748-0.42,0.748l0.894,0.729l0.437-0.042c0.006,0.031,0.021,0.06,0.044,0.084c0.064,0.064,0.169,0.064,0.234,0  l0.027-0.028l0.261,0.26c-0.511,0.624-1.056,1.196-1.604,1.722l-0.319-0.319l0.027-0.028c0.063-0.064,0.063-0.169-0.001-0.233  c-0.023-0.024-0.051-0.04-0.082-0.045l0.041-0.436l-0.728-0.893c0,0-0.48,0.536-0.749,0.419L80.929,11.2  c0.117,0.268-0.418,0.748-0.418,0.748l0.892,0.73l0.436-0.042c0.007,0.031,0.021,0.059,0.045,0.083c0.064,0.064,0.169,0.065,0.234,0  l0.027-0.028l0.312,0.312c-0.668,0.614-1.329,1.15-1.928,1.599l-0.146-0.147l0.027-0.028c0.064-0.064,0.063-0.169-0.001-0.233  c-0.023-0.023-0.053-0.038-0.082-0.044l0.04-0.436l-0.729-0.892c0,0-0.479,0.536-0.749,0.419l-0.053,0.053  c0.118,0.268-0.419,0.748-0.419,0.748l0.894,0.729l0.435-0.041c0.007,0.03,0.021,0.059,0.045,0.083c0.064,0.064,0.169,0.065,0.233,0  l0.028-0.027l0.096,0.097c-1.188,0.859-2.049,1.336-2.049,1.336c0.389,2.691-0.947,4.074-0.947,4.074L47.82,48.087  c-0.825-0.844-1.74-1.659-2.708-2.336c-1.606-1.121-3.463-1.766-5.436-1.667c-1.713,0.086-3.259,0.98-4.437,2.19  c-1.488,1.527-1.854,3.525-2.731,5.385c-0.546,1.157-1.509,2.154-2.608,2.799c-3.175,1.866-7.229,1.148-10.636,2.303  c-1.042,0.353-2.083,0.818-3.04,1.361c-3.631,2.063-6.242,5.384-7.224,9.451c-0.333,1.375-0.401,2.957-0.272,4.361  c0.135,1.475,0.526,3.012,1.075,4.384c1.974,4.942,6.478,9.562,11.006,12.278c1.208,0.725,2.648,1.288,4.035,1.632  c0.144,0.035,0.287,0.068,0.431,0.1c6.21,1.345,12.611-1.32,15.946-6.761c1.837-2.995,2.587-6.361,2.763-9.834  c0.244-4.824,2.104-5.755,3.836-6.44c1.732-0.687,5.012-1.15,6.58-3.278c1.571-2.127,0.722-2.651-0.674-2.465  c-1.225,0.164-2.226,0.507-3.396-0.107c-0.963-0.506-1.718-1.416-2.12-2.418c-0.578-1.442,0.357-2.99,1.354-4.008  c0.031-0.031,30.831-31.481,30.831-31.481s1.382-1.337,4.073-0.948c0,0,0.478-0.862,1.337-2.049l0.172,0.172l-0.028,0.028  c-0.062,0.063-0.063,0.169,0.002,0.233c0.022,0.023,0.053,0.039,0.082,0.045l-0.04,0.435l0.728,0.894c0,0,0.48-0.536,0.749-0.419  l0.053-0.054c-0.117-0.268,0.42-0.748,0.42-0.748l-0.893-0.729l-0.436,0.041c-0.007-0.029-0.022-0.06-0.045-0.082  c-0.065-0.065-0.169-0.066-0.234-0.001l-0.027,0.028l-0.223-0.223c0.425-0.567,0.931-1.189,1.503-1.82l0.382,0.381l-0.027,0.028  c-0.065,0.065-0.065,0.169,0,0.234c0.022,0.022,0.053,0.039,0.083,0.044l-0.042,0.436l0.729,0.892c0,0,0.48-0.536,0.748-0.419  l0.052-0.052c-0.115-0.269,0.421-0.749,0.421-0.749l-0.893-0.729l-0.437,0.042c-0.006-0.03-0.022-0.06-0.046-0.083  c-0.063-0.065-0.167-0.065-0.232,0l-0.027,0.028l-0.393-0.393c0.551-0.583,1.157-1.165,1.819-1.708l0.337,0.335l-0.027,0.028  c-0.064,0.065-0.064,0.17,0,0.234c0.021,0.023,0.053,0.039,0.083,0.044l-0.041,0.437l0.727,0.893c0,0,0.481-0.537,0.749-0.419  l0.054-0.054c-0.117-0.268,0.419-0.748,0.419-0.748l-0.893-0.728l-0.436,0.04c-0.006-0.03-0.022-0.06-0.044-0.083  c-0.064-0.064-0.17-0.064-0.234,0l-0.027,0.028L90.096,16c0.672-0.521,1.39-1.001,2.156-1.394L93.055,14.257z M38.138,48.644  c0.751-0.751,1.969-0.75,2.721,0.001c0.751,0.75,0.751,1.968,0,2.719c-0.751,0.752-1.969,0.752-2.72,0  C37.387,50.614,37.387,49.396,38.138,48.644z M28.359,84.776c-0.539,0.538-1.412,0.539-1.952-0.001  c-0.539-0.538-0.539-1.412,0-1.952c0.54-0.538,1.414-0.538,1.952,0C28.899,83.364,28.898,84.237,28.359,84.776z M30.383,78.848  c0.539-0.539,1.414-0.539,1.952-0.001c0.541,0.541,0.54,1.414,0,1.953s-1.413,0.541-1.953,0  C29.843,80.262,29.843,79.388,30.383,78.848z M33.695,86.137c-0.539,0.538-1.414,0.539-1.953,0c-0.539-0.54-0.54-1.415,0-1.954  c0.539-0.538,1.414-0.538,1.953,0C34.235,84.722,34.234,85.597,33.695,86.137z M33.976,70.478c0.218,0.373,0.184,0.852-0.136,1.173  c-0.38,0.379-0.997,0.378-1.377-0.001l-3.82-3.82c-0.381-0.381-0.38-0.998,0-1.378c0.318-0.319,0.797-0.354,1.17-0.137  c-0.218-0.372-0.183-0.852,0.137-1.17c0.379-0.381,0.996-0.381,1.375-0.001l3.821,3.822c0.381,0.379,0.381,0.995,0,1.377  C34.828,70.661,34.348,70.694,33.976,70.478z M37.671,82.161c-0.539,0.538-1.414,0.538-1.953-0.001c-0.539-0.538-0.54-1.414,0-1.953  s1.415-0.538,1.954,0C38.211,80.746,38.211,81.62,37.671,82.161z M44.122,61.368c-0.32,0.317-0.799,0.352-1.172,0.136  c0.218,0.371,0.184,0.851-0.136,1.171c-0.38,0.379-0.998,0.379-1.378,0l-3.82-3.821c-0.381-0.381-0.38-0.996,0-1.376  c0.318-0.319,0.796-0.354,1.169-0.14c-0.215-0.372-0.18-0.851,0.139-1.168c0.38-0.381,0.996-0.382,1.376-0.001l3.821,3.821  C44.502,60.37,44.502,60.986,44.122,61.368z"/></svg>
