<svg xmlns="http://www.w3.org/2000/svg" xmlns:xlink="http://www.w3.org/1999/xlink" version="1.1" x="0px" y="0px" viewBox="0 0 100 100" enable-background="new 0 0 100 100" xml:space="preserve"><g display="none"><polygon display="inline" fill="#000000" points="4.948,21.713 53.945,50.002 4.948,78.286  "/><rect x="53.945" y="21.713" display="inline" fill="#000000" width="15.478" height="56.573"/><rect x="80.77" y="21.713" display="inline" fill="#000000" width="15.48" height="56.573"/></g><g display="none"><rect x="28.848" y="21.714" display="inline" fill="#000000" width="15.478" height="56.572"/><rect x="55.672" y="21.714" display="inline" fill="#000000" width="15.48" height="56.572"/></g><g display="none"><polygon display="inline" fill="#000000" points="15.745,15.978 74.876,50.118 15.745,84.255  "/></g><g display="none"><polygon display="inline" fill="#000000" points="94.5,49.999 35.169,15.744 35.169,32.871 5.5,15.744 5.5,84.257 35.169,67.129    35.169,84.257  "/></g><g display="none"><polygon display="inline" fill="#000000" points="5.5,50.002 64.831,84.257 64.831,67.13 94.5,84.257 94.5,15.744 64.831,32.872    64.831,15.744  "/></g><g><rect x="15.744" y="15.743" fill="#000000" width="68.512" height="68.514"/></g><g display="none"><polygon display="inline" fill="#000000" points="98,70.513 74.227,56.894 74.227,65.342 60.467,65.342 28.388,24.319    1.892,24.319 1.892,34.657 23.254,34.657 55.333,75.681 74.227,75.681 74.227,84.132  "/><polygon display="inline" fill="#000000" points="98,29.486 74.227,15.867 74.227,24.319 55.333,24.319 44.306,38.421    50.914,46.875 60.467,34.657 74.227,34.657 74.227,43.105  "/><polygon display="inline" fill="#000000" points="32.81,53.123 23.254,65.342 1.892,65.342 1.892,75.681 28.388,75.681    39.418,61.579  "/></g></svg>
